# xmcd CD database file
#
# Track frame offsets:
#	150
#	16622
#	39285
#	55839
#	74955
#	97442
#	117358
#	138912
#	164862
#	178845
#	197370
#	221140
#	249066
#	266131
#
# Disc length: 3857 seconds
#
# Revision: 0
# Processed by: cddbd v1.5.2PL0 Copyright (c) Steve Scherf et al.
# Submitted via: CDex 1.70beta2
#
DISCID=d40f0f0e
DTITLE=Gilberto Gil Acoustic Group - Estival Estival Jazz Lugano 1. July 1995
DYEAR=1995
DGENRE=Jazz
TTITLE0=Saudade De Bahia
TTITLE1=A Novitade
TTITLE2=Refazenda
TTITLE3=Realce
TTITLE4=Parabolicamara
TTITLE5=Diablinho Maluco
TTITLE6=Tempo Rei
TTITLE7=Expresso 2222
TTITLE8=Chiclete Com Banana
TTITLE9=Aquele Abraco
TTITLE10=Palco
TTITLE11=Toda Meminha Baiana
TTITLE12=Sampa
TTITLE13=Madalena
EXTD=YEAR: 1995
EXTT0=
EXTT1=
EXTT2=
EXTT3=
EXTT4=
EXTT5=
EXTT6=
EXTT7=
EXTT8=
EXTT9=
EXTT10=
EXTT11=
EXTT12=
EXTT13=
PLAYORDER=
